<?xml version="1.0" standalone="no"?>
<!DOCTYPE svg PUBLIC "-//W3C//DTD SVG 20010904//EN"
 "http://www.w3.org/TR/2001/REC-SVG-20010904/DTD/svg10.dtd">
<svg version="1.0" xmlns="http://www.w3.org/2000/svg"
 width="700.000000pt" height="700.000000pt" viewBox="0 0 700.000000 700.000000"
 preserveAspectRatio="xMidYMid meet">
<metadata>
Created by potrace 1.11, written by Peter Selinger 2001-2013
</metadata>
<g transform="translate(0.000000,700.000000) scale(0.100000,-0.100000)"
fill="#000000" stroke="none">
<path d="M1747 5834 c-1 -1 -31 -4 -67 -8 -198 -17 -388 -160 -468 -353 -48
-113 -47 -91 -46 -1989 1 -1368 4 -1803 13 -1849 35 -172 158 -330 313 -404
46 -21 107 -44 135 -51 72 -16 3663 -17 3738 -1 64 15 150 48 198 78 65 41
161 146 199 219 76 146 71 -15 71 2019 0 1001 -3 1833 -6 1850 -52 255 -252
451 -492 481 -40 5 -3582 13 -3588 8z m737 -1488 c137 -52 224 -146 266 -284
20 -66 21 -88 18 -294 -3 -201 -6 -228 -26 -278 -44 -110 -141 -208 -252 -252
-49 -20 -77 -23 -251 -26 l-197 -3 0 -252 c-1 -139 -1 -270 -1 -292 l-1 -40
-212 0 c-117 0 -215 3 -218 7 -5 6 -6 1742 -1 1743 0 0 182 0 404 -1 l402 -1
69 -27z m1443 6 c116 -45 206 -121 254 -213 45 -88 48 -134 49 -644 0 -521 -2
-543 -56 -641 -52 -96 -138 -168 -245 -205 -61 -21 -79 -22 -454 -24 -214 -1
-395 0 -401 2 -8 3 -11 249 -11 871 0 477 1 869 3 872 1 3 184 5 406 4 381 -1
406 -2 455 -22z m1468 -195 l1 -217 -41 -1 c-22 0 -118 -1 -212 -1 -109 0
-175 -4 -179 -10 -8 -13 -8 -267 0 -276 4 -3 102 -6 219 -6 l212 -1 0 -217 1
-218 -218 0 -218 0 -1 -52 c0 -29 0 -161 -1 -293 l0 -240 -219 0 -219 0 0 871
c0 479 2 873 4 875 3 2 200 4 438 4 l433 0 0 -218z"/>
<path d="M2043 3792 l2 -145 143 -1 c78 -1 142 1 143 4 0 3 1 69 2 146 l2 141
-147 1 -147 0 2 -146z"/>
<path d="M3500 3500 l0 -437 143 1 142 1 3 437 2 437 -145 -1 -145 -1 0 -437z"/>
</g>
</svg>
